<?xml version="1.0" encoding="UTF-8"?>
<svg width="90px" height="46px" viewBox="0 0 90 46" version="1.1" xmlns="http://www.w3.org/2000/svg" xmlns:xlink="http://www.w3.org/1999/xlink">
    <!-- Generator: sketchtool 55.2 (78181) - https://sketchapp.com -->
    <title>C66C6473-5C71-4B42-9732-649DFA4549E3@1.00x</title>
    <desc>Created with sketchtool.</desc>
    <g id="Pages" stroke="none" stroke-width="1" fill="none" fill-rule="evenodd">
        <g id="Server-Error---XL" transform="translate(-437.000000, -777.000000)" fill="#EE6123" fill-rule="nonzero">
            <g id="bitly_logo" transform="translate(437.000000, 777.000000)">
                <path d="M46.9,31 C42.4,31 39.9,28.3 39.9,25 C39.9,23.7 40,13.6 40,13.6 C38.5,13.6 37.8,12.8 37.8,11.9 C37.8,10.9 38.6,10 39.8,10 C39.8,10 39.8,6.6 39.8,5.3 C39.8,3.7 41,2.4 42.6,2.4 C44.2,2.4 45.4,3.7 45.4,5.3 C45.4,6.5 45.3,8.1 45.3,10 C45.4,10 46.6,10 48.2,10 C49.7,10 50.4,10.8 50.4,11.9 C50.4,13 49.6,13.7 48.5,13.7 C47.5,13.7 45.3,13.7 45.3,13.7 C45.2,16.9 45.1,20.8 45.1,23.8 C45.1,24.9 45.9,26.2 47.7,26.2 C52,26.2 53.2,21.9 53.2,13.8 C53.2,12.7 54.1,11.9 55.1,11.9 C56.2,11.9 57,12.7 57,13.8 C57.1,24.5 54.5,31 46.9,31" id="Fill-1"></path>
                <path d="M65.1,14.5 C65.1,14.5 66.9,13.3 68,13.3 C69.1,13.3 68.9,13.5 68.9,14.6 C68.9,26.2 66.8,31.1 59.3,31.1 C56,31.1 53,28.7 53,25.7 C53,24.5 53.2,22.2 53.2,21.1 C53.2,9.9 53,7.6 53,4.3 C53,2.7 54.3,1.3 55.9,1.3 C57.5,1.3 58.7,2.6 58.7,4.2 C58.7,7.5 58.3,12.2 58.2,24.6 C58.2,25.6 58.7,26.4 60,26.4 C64.3,26.2 64.9,21.3 65.1,14.5" id="Fill-2"></path>
                <path d="M78.7,29 C78.7,29 77.1,31.1 73.1,31 C67.8,30.9 65.4,26.7 65.1,22.4 C64.9,19.1 65,17.3 65,15.1 C65,13.5 66.1,12.2 67.6,12.2 C69.2,12.2 70.1,13.5 70.1,15.1 C70.1,17.2 70,18.6 69.9,21 C69.9,23.8 70.8,26.3 73.1,26.2 C75.3,26.2 77.8,25.3 77.8,20.5 C77.8,18.2 77.8,17.3 77.8,15.1 C77.8,13.5 78.9,12.2 80.5,12.2 C82.1,12.2 83.2,13.5 83.2,15.1 C83.2,17.2 83,18.9 83,22.2 C83,22.2 82.9,28.8 83.1,30.3 C83.8,30.1 84.9,29.3 86,27.6 C86.7,26.6 88,26.3 88.7,26.8 C89.8,27.4 89.8,28.7 89.3,29.6 C88.2,31.9 86.9,33.4 83.4,34.6 C83.4,38.6 83.1,44.4 75.8,45.5 C69.5,46.4 66.7,42.8 66.7,39.7 C66.7,34.8 71.6,33.4 78.6,31.6 L78.7,29 L78.7,29 Z M79.3,35.4 C75.7,36.2 71.3,37.3 71.3,39.5 C71.3,41.6 73.5,41.9 75.3,41.6 C79,40.8 79.4,38.6 79.3,35.4 L79.3,35.4 Z" id="Fill-3"></path>
                <path d="M28.4,25.6 C28.4,24.3 28.2,13.4 28.2,13.4 C28.2,11.8 29.2,10.5 30.8,10.5 C32.4,10.5 33.4,11.9 33.4,13.4 C33.2,18.5 33.1,21.8 33.1,23.6 C33.1,24.6 33.7,26.2 35.3,26.2 C39.1,26.2 39.9,22.7 39.9,14.1 C39.9,13 41,12.2 42.1,12.2 C43.2,12.2 44,13 44,14.1 C44,27.1 41.7,31 34.4,31 C31.6,31 28.4,29.1 28.4,25.6" id="Fill-4"></path>
                <path d="M30.2,11.5 C29.1,11.5 29.1,11.7 28.4,12.8 C28.4,17.6 27.2,23.5 21.8,25.7 C25.6,17.7 21.7,10.4 15.4,10.4 C12.4,10.4 10.5,11.5 9.3,12.5 C9.3,10.2 9.4,6.1 9.4,6.1 C9.4,3.2 8.4,1 4.9,0.9 C2.9,0.9 1.4,1.8 0.4,3.9 C0.1,4.7 0.2,5.5 0.9,5.9 C1.5,6.2 2.4,6 2.8,5.4 C3.1,5 3.3,4.9 3.5,5 C3.9,5 3.9,5.7 4,6.2 C4,6.5 4.3,11.3 4.2,23.9 C4.2,27.4 6.9,31.4 13.5,31.4 C26.5,31.4 32.1,26.6 32.1,13.7 C31.8,12.5 31.2,11.5 30.2,11.5 L30.2,11.5 Z M13.3,26.4 C10.8,26.4 9.1,25.7 9,23.5 C9,22.7 9,21.8 9,21.3 C9.2,18.2 11.4,15.9 13.6,15.5 C16.3,15 18.1,16.2 18.1,19.7 C18,22.1 17.3,26.3 13.3,26.4 L13.3,26.4 Z" id="Fill-5"></path>
                <path d="M30.9,2.4 C32.5,2.4 33.8,3.7 33.8,5.3 C33.8,6.9 32.5,8.2 30.9,8.2 C29.3,8.2 28,6.9 28,5.3 C28,3.7 29.3,2.4 30.9,2.4" id="Fill-6"></path>
            </g>
        </g>
    </g>
</svg>